<svg width="249" height="307" viewBox="0 0 249 307" fill="none" xmlns="http://www.w3.org/2000/svg">
<g filter="url(#filter0_d)">
<path fill-rule="evenodd" clip-rule="evenodd" d="M30 0C15.6406 0 4 11.6406 4 26V215C4 229.359 15.6406 241 30 241H219C233.359 241 245 229.359 245 215V26C245 11.6406 233.359 0 219 0H30ZM41.0739 132.856L74.9139 223H85.5699L119.842 133H120.418C120.226 136.072 119.986 140.056 119.698 144.952C119.506 149.848 119.41 154.792 119.41 159.784V223H132.226V120.184H113.218L80.9619 204.424H80.3859L48.7059 120.184H29.5539V223H41.5059V160.648C41.5059 155.176 41.4099 149.944 41.2179 144.952C41.0259 139.864 40.7859 135.832 40.4979 132.856H41.0739ZM216.787 128.104C210.643 122.824 200.851 120.184 187.411 120.184H160.195V223H173.155V182.968H184.963C195.235 182.968 203.347 181.432 209.299 178.36C215.347 175.288 219.619 171.304 222.115 166.408C224.707 161.416 226.003 156.088 226.003 150.424C226.003 140.824 222.931 133.384 216.787 128.104ZM173.155 131.272H186.259C195.379 131.272 202.051 132.904 206.275 136.168C210.499 139.432 212.611 144.376 212.611 151C212.611 158.584 210.211 163.96 205.411 167.128C200.611 170.296 193.315 171.88 183.523 171.88H173.155V131.272Z" fill="#C46D5E"/>
</g>
<path d="M21.4129 267.76V271.96C21.4129 272.44 21.3969 272.912 21.3649 273.376C21.3329 273.824 21.2929 274.208 21.2449 274.528H21.4129C21.7489 273.984 22.2049 273.528 22.7809 273.16C23.3569 272.776 24.1089 272.584 25.0369 272.584C26.4609 272.584 27.6209 273.16 28.5169 274.312C29.4289 275.464 29.8849 277.152 29.8849 279.376C29.8849 281.632 29.4209 283.344 28.4929 284.512C27.5809 285.664 26.3889 286.24 24.9169 286.24C23.9729 286.24 23.2369 286.072 22.7089 285.736C22.1809 285.4 21.7489 285.032 21.4129 284.632H21.1489L20.5009 286H17.3569V267.76H21.4129ZM23.6449 275.776C22.8449 275.776 22.2769 276.04 21.9409 276.568C21.6049 277.08 21.4289 277.872 21.4129 278.944V279.448C21.4129 280.6 21.5729 281.48 21.8929 282.088C22.2289 282.68 22.8289 282.976 23.6929 282.976C24.3329 282.976 24.8369 282.664 25.2049 282.04C25.5729 281.416 25.7569 280.512 25.7569 279.328C25.7569 276.96 25.0529 275.776 23.6449 275.776ZM30.4648 272.824H34.7848L37.1608 280.288C37.2408 280.56 37.3048 280.864 37.3528 281.2C37.4168 281.52 37.4648 281.848 37.4968 282.184H37.5688C37.6168 281.816 37.6728 281.48 37.7368 281.176C37.8168 280.856 37.8968 280.568 37.9768 280.312L40.3528 272.824H44.5768L39.1528 287.296C38.6088 288.768 37.8648 289.88 36.9208 290.632C35.9768 291.384 34.7688 291.76 33.2968 291.76C32.8808 291.76 32.5208 291.736 32.2168 291.688C31.9288 291.656 31.6728 291.616 31.4488 291.568V288.376C31.6248 288.408 31.8328 288.44 32.0728 288.472C32.3288 288.504 32.5928 288.52 32.8648 288.52C33.6168 288.52 34.1928 288.296 34.5928 287.848C34.9928 287.4 35.3048 286.872 35.5288 286.264L35.6728 285.856L30.4648 272.824ZM60.1686 286L56.3286 273.064H56.2326C56.2486 273.384 56.2726 273.848 56.3046 274.456C56.3526 275.048 56.3926 275.688 56.4246 276.376C56.4566 277.064 56.4726 277.696 56.4726 278.272V286H52.8246V268.864H58.3446L62.1606 281.536H62.2566L66.1926 268.864H71.6886V286H67.8966V278.176C67.8966 277.632 67.9046 277.032 67.9206 276.376C67.9526 275.704 67.9766 275.072 67.9926 274.48C68.0246 273.872 68.0486 273.408 68.0646 273.088H67.9686L64.0086 286H60.1686ZM81.339 272.56C83.051 272.56 84.379 272.96 85.323 273.76C86.267 274.56 86.739 275.728 86.739 277.264V286H83.931L83.139 284.224H83.043C82.483 284.944 81.891 285.464 81.267 285.784C80.643 286.088 79.787 286.24 78.699 286.24C77.531 286.24 76.563 285.896 75.795 285.208C75.027 284.52 74.643 283.456 74.643 282.016C74.643 280.624 75.131 279.592 76.107 278.92C77.099 278.232 78.547 277.848 80.451 277.768L82.707 277.696V277.312C82.707 276.672 82.539 276.208 82.203 275.92C81.883 275.632 81.435 275.488 80.859 275.488C80.283 275.488 79.683 275.584 79.059 275.776C78.435 275.952 77.803 276.176 77.163 276.448L75.939 273.76C76.659 273.376 77.475 273.08 78.387 272.872C79.299 272.664 80.283 272.56 81.339 272.56ZM82.707 280L81.483 280.048C80.475 280.08 79.771 280.264 79.371 280.6C78.971 280.92 78.771 281.36 78.771 281.92C78.771 282.416 78.915 282.776 79.203 283C79.491 283.224 79.859 283.336 80.307 283.336C80.979 283.336 81.547 283.136 82.011 282.736C82.475 282.32 82.707 281.76 82.707 281.056V280ZM96.1298 283.024C96.5298 283.024 96.9058 282.984 97.2578 282.904C97.6258 282.824 97.9938 282.72 98.3618 282.592V285.568C97.9298 285.76 97.4338 285.92 96.8738 286.048C96.3138 286.176 95.6498 286.24 94.8818 286.24C94.0658 286.24 93.3378 286.112 92.6978 285.856C92.0738 285.584 91.5778 285.128 91.2098 284.488C90.8578 283.848 90.6818 282.944 90.6818 281.776V275.848H89.0018V274.168L91.0178 272.872L92.1218 270.088H94.7138V272.824H98.2178V275.848H94.7138V281.632C94.7138 282.096 94.8418 282.448 95.0978 282.688C95.3538 282.912 95.6978 283.024 96.1298 283.024ZM106.841 283.024C107.241 283.024 107.617 282.984 107.969 282.904C108.337 282.824 108.705 282.72 109.073 282.592V285.568C108.641 285.76 108.145 285.92 107.585 286.048C107.025 286.176 106.361 286.24 105.593 286.24C104.777 286.24 104.049 286.112 103.409 285.856C102.785 285.584 102.289 285.128 101.921 284.488C101.569 283.848 101.393 282.944 101.393 281.776V275.848H99.7127V274.168L101.729 272.872L102.833 270.088H105.425V272.824H108.929V275.848H105.425V281.632C105.425 282.096 105.553 282.448 105.809 282.688C106.065 282.912 106.409 283.024 106.841 283.024ZM123.786 268.864C125.978 268.864 127.594 269.344 128.634 270.304C129.69 271.248 130.218 272.568 130.218 274.264C130.218 275.272 130.01 276.224 129.594 277.12C129.178 278 128.49 278.72 127.53 279.28C126.57 279.824 125.266 280.096 123.618 280.096H122.178V286H118.098V268.864H123.786ZM123.642 272.2H122.178V276.76H123.258C124.074 276.76 124.746 276.576 125.274 276.208C125.818 275.84 126.09 275.232 126.09 274.384C126.09 273.68 125.89 273.144 125.49 272.776C125.09 272.392 124.474 272.2 123.642 272.2ZM138.831 272.56C140.543 272.56 141.871 272.96 142.815 273.76C143.759 274.56 144.231 275.728 144.231 277.264V286H141.423L140.631 284.224H140.535C139.975 284.944 139.383 285.464 138.759 285.784C138.135 286.088 137.279 286.24 136.191 286.24C135.023 286.24 134.055 285.896 133.287 285.208C132.519 284.52 132.135 283.456 132.135 282.016C132.135 280.624 132.623 279.592 133.599 278.92C134.591 278.232 136.039 277.848 137.943 277.768L140.199 277.696V277.312C140.199 276.672 140.031 276.208 139.695 275.92C139.375 275.632 138.927 275.488 138.351 275.488C137.775 275.488 137.175 275.584 136.551 275.776C135.927 275.952 135.295 276.176 134.655 276.448L133.431 273.76C134.151 273.376 134.967 273.08 135.879 272.872C136.791 272.664 137.775 272.56 138.831 272.56ZM140.199 280L138.975 280.048C137.967 280.08 137.263 280.264 136.863 280.6C136.463 280.92 136.263 281.36 136.263 281.92C136.263 282.416 136.407 282.776 136.695 283C136.983 283.224 137.351 283.336 137.799 283.336C138.471 283.336 139.039 283.136 139.503 282.736C139.967 282.32 140.199 281.76 140.199 281.056V280ZM155.302 272.584C155.51 272.584 155.742 272.6 155.998 272.632C156.254 272.648 156.454 272.672 156.598 272.704L156.262 276.496C156.118 276.464 155.934 276.44 155.71 276.424C155.486 276.392 155.238 276.376 154.966 276.376C154.454 276.376 153.942 276.456 153.43 276.616C152.934 276.776 152.518 277.08 152.182 277.528C151.862 277.96 151.702 278.584 151.702 279.4V286H147.646V272.824H150.694L151.318 274.984H151.486C151.87 274.328 152.398 273.768 153.07 273.304C153.742 272.824 154.486 272.584 155.302 272.584ZM164.684 283.024C165.084 283.024 165.46 282.984 165.812 282.904C166.18 282.824 166.548 282.72 166.916 282.592V285.568C166.484 285.76 165.988 285.92 165.428 286.048C164.868 286.176 164.204 286.24 163.436 286.24C162.62 286.24 161.892 286.112 161.252 285.856C160.628 285.584 160.132 285.128 159.764 284.488C159.412 283.848 159.236 282.944 159.236 281.776V275.848H157.556V274.168L159.572 272.872L160.676 270.088H163.268V272.824H166.772V275.848H163.268V281.632C163.268 282.096 163.396 282.448 163.652 282.688C163.908 282.912 164.252 283.024 164.684 283.024ZM177.075 272.584C177.283 272.584 177.515 272.6 177.771 272.632C178.027 272.648 178.227 272.672 178.371 272.704L178.035 276.496C177.891 276.464 177.707 276.44 177.483 276.424C177.259 276.392 177.011 276.376 176.739 276.376C176.227 276.376 175.715 276.456 175.203 276.616C174.707 276.776 174.291 277.08 173.955 277.528C173.635 277.96 173.475 278.584 173.475 279.4V286H169.419V272.824H172.467L173.091 274.984H173.259C173.643 274.328 174.171 273.768 174.843 273.304C175.515 272.824 176.259 272.584 177.075 272.584ZM182.546 267.592C183.122 267.592 183.626 267.72 184.058 267.976C184.49 268.232 184.706 268.728 184.706 269.464C184.706 270.184 184.49 270.68 184.058 270.952C183.626 271.208 183.122 271.336 182.546 271.336C181.938 271.336 181.418 271.208 180.986 270.952C180.57 270.68 180.362 270.184 180.362 269.464C180.362 268.728 180.57 268.232 180.986 267.976C181.418 267.72 181.938 267.592 182.546 267.592ZM184.538 272.824V286H180.506V272.824H184.538ZM192.181 286.24C190.757 286.24 189.597 285.664 188.701 284.512C187.805 283.36 187.357 281.664 187.357 279.424C187.357 277.168 187.813 275.464 188.725 274.312C189.637 273.16 190.829 272.584 192.301 272.584C193.229 272.584 193.981 272.768 194.557 273.136C195.133 273.504 195.597 273.96 195.949 274.504H196.045C195.997 274.216 195.941 273.808 195.877 273.28C195.829 272.736 195.805 272.2 195.805 271.672V267.76H199.861V286H196.789L195.973 284.296H195.805C195.469 284.84 195.013 285.304 194.437 285.688C193.861 286.056 193.109 286.24 192.181 286.24ZM193.717 283.024C194.581 283.024 195.189 282.76 195.541 282.232C195.909 281.704 196.101 280.904 196.117 279.832V279.472C196.117 278.304 195.941 277.408 195.589 276.784C195.253 276.16 194.613 275.848 193.669 275.848C192.981 275.848 192.437 276.152 192.037 276.76C191.637 277.368 191.437 278.28 191.437 279.496C191.437 280.696 191.637 281.584 192.037 282.16C192.453 282.736 193.013 283.024 193.717 283.024ZM207.581 272.584C208.445 272.584 209.181 272.752 209.789 273.088C210.397 273.424 210.901 273.888 211.301 274.48H211.397L211.709 272.824H215.165V286.024C215.165 287.896 214.597 289.32 213.461 290.296C212.341 291.272 210.645 291.76 208.373 291.76C207.381 291.76 206.485 291.704 205.685 291.592C204.885 291.48 204.101 291.28 203.333 290.992V287.704C204.149 288.04 204.949 288.288 205.733 288.448C206.517 288.624 207.397 288.712 208.373 288.712C210.213 288.712 211.133 287.872 211.133 286.192V285.928C211.133 285.704 211.141 285.448 211.157 285.16C211.189 284.856 211.221 284.568 211.253 284.296H211.133C210.749 284.92 210.253 285.4 209.645 285.736C209.053 286.072 208.341 286.24 207.509 286.24C206.021 286.24 204.837 285.648 203.957 284.464C203.093 283.28 202.661 281.6 202.661 279.424C202.661 277.232 203.101 275.544 203.981 274.36C204.877 273.176 206.077 272.584 207.581 272.584ZM208.997 275.776C207.509 275.776 206.765 277.016 206.765 279.496C206.765 280.728 206.949 281.64 207.317 282.232C207.701 282.808 208.277 283.096 209.045 283.096C209.893 283.096 210.501 282.848 210.869 282.352C211.237 281.856 211.421 281.04 211.421 279.904V279.4C211.421 278.168 211.237 277.256 210.869 276.664C210.517 276.072 209.893 275.776 208.997 275.776ZM224.326 272.584C226.182 272.584 227.654 273.096 228.742 274.12C229.83 275.128 230.374 276.616 230.374 278.584V280.456H222.046C222.078 281.32 222.358 282.008 222.886 282.52C223.414 283.032 224.166 283.288 225.142 283.288C225.974 283.288 226.734 283.208 227.422 283.048C228.126 282.888 228.846 282.632 229.582 282.28V285.28C228.926 285.616 228.23 285.856 227.494 286C226.774 286.16 225.878 286.24 224.806 286.24C223.478 286.24 222.294 286 221.254 285.52C220.23 285.04 219.422 284.304 218.83 283.312C218.254 282.304 217.966 281.032 217.966 279.496C217.966 277.944 218.23 276.656 218.758 275.632C219.286 274.608 220.022 273.848 220.966 273.352C221.926 272.84 223.046 272.584 224.326 272.584ZM224.398 275.392C223.774 275.392 223.254 275.592 222.838 275.992C222.438 276.376 222.198 276.992 222.118 277.84H226.654C226.638 277.152 226.446 276.576 226.078 276.112C225.71 275.632 225.15 275.392 224.398 275.392Z" fill="#C46D5E"/>
<defs>
<filter id="filter0_d" x="0" y="0" width="249" height="249" filterUnits="userSpaceOnUse" color-interpolation-filters="sRGB">
<feFlood flood-opacity="0" result="BackgroundImageFix"/>
<feColorMatrix in="SourceAlpha" type="matrix" values="0 0 0 0 0 0 0 0 0 0 0 0 0 0 0 0 0 0 127 0"/>
<feOffset dy="4"/>
<feGaussianBlur stdDeviation="2"/>
<feColorMatrix type="matrix" values="0 0 0 0 0 0 0 0 0 0 0 0 0 0 0 0 0 0 0.25 0"/>
<feBlend mode="normal" in2="BackgroundImageFix" result="effect1_dropShadow"/>
<feBlend mode="normal" in="SourceGraphic" in2="effect1_dropShadow" result="shape"/>
</filter>
</defs>
</svg>
