<svg width="261" height="308" viewBox="0 0 261 308" fill="none" xmlns="http://www.w3.org/2000/svg">
<g filter="url(#filter0_d)">
<path fill-rule="evenodd" clip-rule="evenodd" d="M30 5C15.6406 5 4 16.6406 4 31V232C4 246.359 15.6406 258 30 258H231C245.359 258 257 246.359 257 232V31C257 16.6406 245.359 5 231 5H30ZM37.8044 137.674L75.4044 237.834H87.2444L125.324 137.834H125.964C125.751 141.247 125.484 145.674 125.164 151.114C124.951 156.554 124.844 162.047 124.844 167.594V237.834H139.084V123.594H117.964L82.1244 217.194H81.4844L46.2844 123.594H25.0044V237.834H38.2844V168.554C38.2844 162.474 38.1777 156.661 37.9644 151.114C37.751 145.461 37.4844 140.981 37.1644 137.674H37.8044ZM233.041 132.394C226.214 126.527 215.334 123.594 200.401 123.594H170.161V237.834H184.561V193.354H197.681C209.094 193.354 218.107 191.647 224.721 188.234C231.441 184.821 236.187 180.394 238.961 174.954C241.841 169.407 243.281 163.487 243.281 157.194C243.281 146.527 239.867 138.261 233.041 132.394ZM184.561 135.914H199.121C209.254 135.914 216.667 137.727 221.361 141.354C226.054 144.981 228.401 150.474 228.401 157.834C228.401 166.261 225.734 172.234 220.401 175.754C215.067 179.274 206.961 181.034 196.081 181.034H184.561V135.914Z" fill="#F4F5F6"/>
</g>
<path d="M19.336 307L14.856 291.908H14.744C14.7627 292.281 14.7907 292.823 14.828 293.532C14.884 294.223 14.9307 294.969 14.968 295.772C15.0053 296.575 15.024 297.312 15.024 297.984V307H10.768V287.008H17.208L21.66 301.792H21.772L26.364 287.008H32.776V307H28.352V297.872C28.352 297.237 28.3613 296.537 28.38 295.772C28.4174 294.988 28.4453 294.251 28.464 293.56C28.5014 292.851 28.5294 292.309 28.548 291.936H28.436L23.816 307H19.336ZM49.7189 307L48.4869 302.716H41.5709L40.3389 307H35.1309L41.9349 286.924H48.0389L54.9269 307H49.7189ZM47.4229 298.74L46.2469 294.736C46.1535 294.4 46.0229 293.952 45.8549 293.392C45.7055 292.813 45.5469 292.225 45.3789 291.628C45.2295 291.031 45.1082 290.527 45.0149 290.116C44.9402 290.527 44.8189 291.04 44.6509 291.656C44.5015 292.253 44.3522 292.841 44.2029 293.42C44.0535 293.98 43.9322 294.419 43.8389 294.736L42.6629 298.74H47.4229ZM63.515 307H58.755V290.956H53.575V287.008H68.695V290.956H63.515V307ZM80.4408 307H75.6808V290.956H70.5008V287.008H85.6208V290.956H80.4408V307ZM102.525 287.008C105.082 287.008 106.968 287.568 108.181 288.688C109.413 289.789 110.029 291.329 110.029 293.308C110.029 294.484 109.786 295.595 109.301 296.64C108.816 297.667 108.013 298.507 106.893 299.16C105.773 299.795 104.252 300.112 102.329 300.112H100.649V307H95.8891V287.008H102.525ZM102.357 290.9H100.649V296.22H101.909C102.861 296.22 103.645 296.005 104.261 295.576C104.896 295.147 105.213 294.437 105.213 293.448C105.213 292.627 104.98 292.001 104.513 291.572C104.046 291.124 103.328 290.9 102.357 290.9ZM124.367 307L123.135 302.716H116.219L114.987 307H109.779L116.583 286.924H122.687L129.575 307H124.367ZM122.071 298.74L120.895 294.736C120.802 294.4 120.671 293.952 120.503 293.392C120.354 292.813 120.195 292.225 120.027 291.628C119.878 291.031 119.757 290.527 119.663 290.116C119.589 290.527 119.467 291.04 119.299 291.656C119.15 292.253 119.001 292.841 118.851 293.42C118.702 293.98 118.581 294.419 118.487 294.736L117.311 298.74H122.071ZM138.088 287.008C143.464 287.008 146.152 288.996 146.152 292.972C146.152 294.26 145.807 295.343 145.116 296.22C144.444 297.097 143.595 297.788 142.568 298.292L148.42 307H143.072L138.564 299.496H136.688V307H131.928V287.008H138.088ZM137.892 290.76H136.688V295.772H137.892C139.031 295.772 139.88 295.567 140.44 295.156C141.019 294.727 141.308 294.055 141.308 293.14C141.308 292.337 141.028 291.74 140.468 291.348C139.927 290.956 139.068 290.76 137.892 290.76ZM158.835 307H154.075V290.956H148.895V287.008H164.015V290.956H158.835V307ZM173.17 287.008C178.546 287.008 181.234 288.996 181.234 292.972C181.234 294.26 180.889 295.343 180.198 296.22C179.526 297.097 178.677 297.788 177.65 298.292L183.502 307H178.154L173.646 299.496H171.77V307H167.01V287.008H173.17ZM172.974 290.76H171.77V295.772H172.974C174.113 295.772 174.962 295.567 175.522 295.156C176.101 294.727 176.39 294.055 176.39 293.14C176.39 292.337 176.11 291.74 175.55 291.348C175.009 290.956 174.15 290.76 172.974 290.76ZM194.001 307H184.285V304.284L186.749 303.248V290.76L184.285 289.724V287.008H194.001V289.724L191.537 290.76V303.248L194.001 304.284V307ZM214.024 296.696C214.024 298.992 213.594 300.905 212.736 302.436C211.877 303.948 210.645 305.087 209.04 305.852C207.434 306.617 205.521 307 203.3 307H197.28V287.008H203.86C207.033 287.008 209.516 287.839 211.308 289.5C213.118 291.143 214.024 293.541 214.024 296.696ZM209.096 296.864C209.096 294.829 208.666 293.327 207.808 292.356C206.949 291.385 205.68 290.9 204 290.9H202.04V303.08H203.58C205.465 303.08 206.856 302.567 207.752 301.54C208.648 300.495 209.096 298.936 209.096 296.864ZM225.708 295.548H233.968V306.104C232.923 306.459 231.784 306.748 230.552 306.972C229.339 307.177 228.014 307.28 226.576 307.28C223.627 307.28 221.312 306.421 219.632 304.704C217.952 302.968 217.112 300.392 217.112 296.976C217.112 294.885 217.514 293.075 218.316 291.544C219.119 289.995 220.295 288.809 221.844 287.988C223.412 287.148 225.326 286.728 227.584 286.728C228.723 286.728 229.824 286.849 230.888 287.092C231.971 287.316 232.923 287.605 233.744 287.96L232.204 291.74C231.551 291.423 230.832 291.171 230.048 290.984C229.264 290.779 228.443 290.676 227.584 290.676C226.371 290.676 225.344 290.956 224.504 291.516C223.683 292.057 223.067 292.813 222.656 293.784C222.246 294.736 222.04 295.828 222.04 297.06C222.04 298.983 222.432 300.513 223.216 301.652C224.019 302.772 225.26 303.332 226.94 303.332C227.407 303.332 227.855 303.304 228.284 303.248C228.714 303.192 229.087 303.136 229.404 303.08V299.384H225.708V295.548ZM250.081 307H238.405V287.008H250.081V290.872H243.165V294.708H249.577V298.572H243.165V303.08H250.081V307Z" fill="#F4F5F6"/>
<defs>
<filter id="filter0_d" x="0" y="5" width="261" height="261" filterUnits="userSpaceOnUse" color-interpolation-filters="sRGB">
<feFlood flood-opacity="0" result="BackgroundImageFix"/>
<feColorMatrix in="SourceAlpha" type="matrix" values="0 0 0 0 0 0 0 0 0 0 0 0 0 0 0 0 0 0 127 0"/>
<feOffset dy="4"/>
<feGaussianBlur stdDeviation="2"/>
<feColorMatrix type="matrix" values="0 0 0 0 0 0 0 0 0 0 0 0 0 0 0 0 0 0 0.25 0"/>
<feBlend mode="normal" in2="BackgroundImageFix" result="effect1_dropShadow"/>
<feBlend mode="normal" in="SourceGraphic" in2="effect1_dropShadow" result="shape"/>
</filter>
</defs>
</svg>
